# xmcd
#
# Track frame offsets: 
#        150
#        12820
#        34355
#        51997
#        77362
#        91940
#        111255
#        127320
#        143297
#        162695
#        177012
#        194852
#        207245
#        221095
#        242102
#        264089
#
# Disc length: 3533 seconds
#
# Revision: 0
# Processed by: cddbd v1.5.1PL0 Copyright (c) Steve Scherf et al.
# Submitted via: ExactAudioCopy v0.95a5
#
DISCID=e50dcb10
DTITLE=Various Artist - The Brick 3 SC 7556
DYEAR=1900
DGENRE=Karaoke Country
TTITLE0=Charley Pride - Is Anybody Goin' to San Antone
TTITLE1=Patty Loveless - When the Fallen Angels Fly
TTITLE2=Michael Johnson - Give Me Wings
TTITLE3=K.T. Oslin - This Woman
TTITLE4=Sawyer Brown - Step That Step
TTITLE5=Steve Wariner - You Can Dream of Me
TTITLE6=T.G. Sheppard - I'll Be Coming Back for More
TTITLE7=Lee Greenwood - Hearts Ain't Made to Break
TTITLE8=Gary Morris - I'll Never Stop Loving You
TTITLE9=Don Williams - One Good Well
TTITLE10=Ricky Skaggs - Cajun Moon
TTITLE11=Sylvia - Drifter
TTITLE12=Vern Gosdin - I'm Still Crazy
TTITLE13=Gary Morris - Second Hand Heart
TTITLE14=Johnny Rodriguez - Just Get Up and Close the Door
TTITLE15=data
EXTD=
EXTT0=
EXTT1=
EXTT2=
EXTT3=
EXTT4=
EXTT5=
EXTT6=
EXTT7=
EXTT8=
EXTT9=
EXTT10=
EXTT11=
EXTT12=
EXTT13=
EXTT14=
EXTT15=
PLAYORDER=
